<mxfile host="app.diagrams.net" modified="2023-09-20T11:27:38.702Z" agent="Mozilla/5.0 (Windows NT 10.0; Win64; x64) AppleWebKit/537.36 (KHTML, like Gecko) Chrome/116.0.0.0 Safari/537.36" etag="rIHJB6Au7vwZlY9hpYLC" version="21.7.5" type="github">
  <diagram name="Page-1" id="u0xqXe0WMdegoKyh-Hgx">
    <mxGraphModel dx="954" dy="662" grid="1" gridSize="10" guides="1" tooltips="1" connect="1" arrows="1" fold="1" page="1" pageScale="1" pageWidth="3300" pageHeight="4681" math="0" shadow="0">
      <root>
        <mxCell id="0" />
        <mxCell id="1" parent="0" />
        <mxCell id="-TA92dhwrBWGBmwWwe95-11" style="edgeStyle=orthogonalEdgeStyle;rounded=0;orthogonalLoop=1;jettySize=auto;html=1;exitX=1;exitY=0.5;exitDx=0;exitDy=0;entryX=0.25;entryY=0;entryDx=0;entryDy=0;" edge="1" parent="1" source="-TA92dhwrBWGBmwWwe95-2" target="-TA92dhwrBWGBmwWwe95-6">
          <mxGeometry relative="1" as="geometry" />
        </mxCell>
        <mxCell id="-TA92dhwrBWGBmwWwe95-2" value="ESP PING" style="rounded=1;whiteSpace=wrap;html=1;" vertex="1" parent="1">
          <mxGeometry x="230" y="220" width="120" height="60" as="geometry" />
        </mxCell>
        <mxCell id="-TA92dhwrBWGBmwWwe95-12" style="edgeStyle=orthogonalEdgeStyle;rounded=0;orthogonalLoop=1;jettySize=auto;html=1;exitX=0;exitY=0.5;exitDx=0;exitDy=0;entryX=0.75;entryY=0;entryDx=0;entryDy=0;" edge="1" parent="1" source="-TA92dhwrBWGBmwWwe95-3" target="-TA92dhwrBWGBmwWwe95-6">
          <mxGeometry relative="1" as="geometry" />
        </mxCell>
        <mxCell id="-TA92dhwrBWGBmwWwe95-3" value="Server-junia" style="rounded=1;whiteSpace=wrap;html=1;" vertex="1" parent="1">
          <mxGeometry x="590" y="220" width="120" height="60" as="geometry" />
        </mxCell>
        <mxCell id="-TA92dhwrBWGBmwWwe95-4" value="Mobile phone" style="rounded=1;whiteSpace=wrap;html=1;" vertex="1" parent="1">
          <mxGeometry x="420" y="470" width="120" height="60" as="geometry" />
        </mxCell>
        <mxCell id="-TA92dhwrBWGBmwWwe95-9" style="edgeStyle=orthogonalEdgeStyle;rounded=0;orthogonalLoop=1;jettySize=auto;html=1;exitX=0.75;exitY=0;exitDx=0;exitDy=0;entryX=0;entryY=0.5;entryDx=0;entryDy=0;" edge="1" parent="1" source="-TA92dhwrBWGBmwWwe95-6" target="-TA92dhwrBWGBmwWwe95-3">
          <mxGeometry relative="1" as="geometry" />
        </mxCell>
        <mxCell id="-TA92dhwrBWGBmwWwe95-10" style="edgeStyle=orthogonalEdgeStyle;rounded=0;orthogonalLoop=1;jettySize=auto;html=1;exitX=0.25;exitY=0;exitDx=0;exitDy=0;entryX=1;entryY=0.5;entryDx=0;entryDy=0;" edge="1" parent="1" source="-TA92dhwrBWGBmwWwe95-6" target="-TA92dhwrBWGBmwWwe95-2">
          <mxGeometry relative="1" as="geometry" />
        </mxCell>
        <mxCell id="-TA92dhwrBWGBmwWwe95-6" value="routeur rÃ©seau JUNIA_STUDENT" style="rounded=1;whiteSpace=wrap;html=1;" vertex="1" parent="1">
          <mxGeometry x="420" y="330" width="120" height="60" as="geometry" />
        </mxCell>
        <mxCell id="-TA92dhwrBWGBmwWwe95-7" value="" style="html=1;verticalLabelPosition=bottom;align=center;labelBackgroundColor=#ffffff;verticalAlign=top;strokeWidth=2;strokeColor=#0080F0;shadow=0;dashed=0;shape=mxgraph.ios7.icons.wifi;pointerEvents=1" vertex="1" parent="1">
          <mxGeometry x="440" y="449" width="29.7" height="21" as="geometry" />
        </mxCell>
        <mxCell id="-TA92dhwrBWGBmwWwe95-8" value="" style="html=1;verticalLabelPosition=bottom;align=center;labelBackgroundColor=#ffffff;verticalAlign=top;strokeWidth=2;strokeColor=#0080F0;shadow=0;dashed=0;shape=mxgraph.ios7.icons.wifi;pointerEvents=1;rotation=-180;" vertex="1" parent="1">
          <mxGeometry x="480" y="390" width="29.7" height="21" as="geometry" />
        </mxCell>
      </root>
    </mxGraphModel>
  </diagram>
</mxfile>
